PathFileType	3	(X/Y/Z)	F:\ViconData\AntennenMessung\Messung1\Session1\ID18.trc
DataRate	CameraRate	NumFrames	NumMarkers	Units	OrigDataRate	OrigDataStartFrame	OrigNumFrames
120.0	120.0	4	70	mm	120.0	893	1020	
Frame#	Time	Ashort			Along			Atop			A4			Bshort			Blong			Btop			B4			Cshort			Clong			Ctop			C4			Dshort			Dlong			Dtop			D4			Eshort			Elong			Etop			E4			Fshort			Flong			Ftop			F4			Gshort			Glong			Gtop			G4			Hshort			Hlong			Htop			H4			I1			I2			I3			I4			I5			WandAshort			WandAlong			WandAtop			WandA4			WandA15			WandBshort			WandB4			WandB5			WandBtop			WandBlong			WandCshort			WandClong			WandCtop			WandC4			WandC5			Acenter			Aantenna			Bcenter			Bantenna			Ccenter			Cantenna			Dcenter			Dantenna			Ecenter			Eantenna			Fcenter			Fantenna			Gcenter			Gantenna			Hcenter			Hantenna			Icenter			Iantenna			
		X1	Y1	Z1	X2	Y2	Z2	X3	Y3	Z3	X4	Y4	Z4	X5	Y5	Z5	X6	Y6	Z6	X7	Y7	Z7	X8	Y8	Z8	X9	Y9	Z9	X10	Y10	Z10	X11	Y11	Z11	X12	Y12	Z12	X13	Y13	Z13	X14	Y14	Z14	X15	Y15	Z15	X16	Y16	Z16	X17	Y17	Z17	X18	Y18	Z18	X19	Y19	Z19	X20	Y20	Z20	X21	Y21	Z21	X22	Y22	Z22	X23	Y23	Z23	X24	Y24	Z24	X25	Y25	Z25	X26	Y26	Z26	X27	Y27	Z27	X28	Y28	Z28	X29	Y29	Z29	X30	Y30	Z30	X31	Y31	Z31	X32	Y32	Z32	X33	Y33	Z33	X34	Y34	Z34	X35	Y35	Z35	X36	Y36	Z36	X37	Y37	Z37	X38	Y38	Z38	X39	Y39	Z39	X40	Y40	Z40	X41	Y41	Z41	X42	Y42	Z42	X43	Y43	Z43	X44	Y44	Z44	X45	Y45	Z45	X46	Y46	Z46	X47	Y47	Z47	X48	Y48	Z48	X49	Y49	Z49	X50	Y50	Z50	X51	Y51	Z51	X52	Y52	Z52	X53	Y53	Z53	X54	Y54	Z54	X55	Y55	Z55	X56	Y56	Z56	X57	Y57	Z57	X58	Y58	Z58	X59	Y59	Z59	X60	Y60	Z60	X61	Y61	Z61	X62	Y62	Z62	X63	Y63	Z63	X64	Y64	Z64	X65	Y65	Z65	X66	Y66	Z66	X67	Y67	Z67	X68	Y68	Z68	X69	Y69	Z69	X70	Y70	Z70	
893	7.4333333	-1038.2283	214.45987	-1644.3312	-1109.4	204.08069	-1599.328	-1063.7474	173.17383	-1625.6763	-1054.2489	262.22006	-1634.9718	-1353.085	234.86105	1003.8007	-1281.3695	227.09879	1052.4667	-1322.8737	193.81197	1021.0074	-1284.6724	287.90454	1052.7936	813.90405	187.70702	1209.462	892.15594	178.39882	1179.3606	844.34381	145.59477	1198.2372	860.84363	292.61484	1168.3202	1115.7218	209.81123	-1401.7882	1056.147	194.02255	-1460.3036	1095.1218	162.36993	-1423.9453	1069.8073	238.64101	-1425.7908	-1204.5212	1685.9437	-1563.225	-1129.1766	1688.3109	-1606.0653	-1173.194	1724.4343	-1581.9656	-1134.0887	1580.9554	-1603.8667	-1239.6472	1699.1578	1119.4907	-1308.8964	1698.0835	1071.679	-1270.4233	1736.288	1096.8774	-1244.6403	1593.7493	1106.4445	988.87964	1664.2405	1162.2715	957.4931	1700.325	1183.8314	922.70245	1662.0677	1215.0692	939.79279	1659.4287	1159.8789	998.98517	1668.4215	-1579.4484	1058.6765	1669.9426	-1518.6674	1024.9216	1708.0238	-1551.1312	1059.1948	1672.1169	-1585.4713	-261.52328	164.54402	-221.54523	-346.13818	171.90733	-224.28458	-303.27707	129.0963	-221.78838	-299.59857	169.55858	-191.62418	-297.80154	166.35335	-270.15298																																														-1068.723	210.01273	-1625.0488	-1073.9424	248.65628	-1624.3909	-1321.6146	231.4548	1025.1561	-1320.3188	270.19867	1029.4264	848.12323	183.63658	1196.2988	851.974	222.39572	1194.3239	1088.7261	202.65674	-1428.3038	1082.6458	240.95633	-1432.4475	-1171.9055	1686.9684	-1581.7699	-1170.5653	1647.9919	-1581.5664	-1270.6661	1698.6766	1098.0743	-1270.9178	1659.697	1099.3147	953.10278	1705.3723	1186.8472	972.87415	1733.5361	1168.4927	1026.3617	1669.119	-1551.5719	1027.8042	1630.1482	-1552.0133	-299.86966	167.88097	-222.78667	-296.45755	206.71857	-223.78633
894	7.4416667	-1038.249	214.51648	-1644.2461	-1109.3909	204.19144	-1599.3458	-1063.7156	173.1848	-1625.7209	-1054.2075	262.24344	-1634.9791	-1353.0435	234.85371	1003.7812	-1281.3898	227.09761	1052.5552	-1322.8798	193.71771	1021.0779	-1284.7617	287.81894	1052.8829	813.96106	187.65726	1209.4645	892.13885	178.4572	1179.2711	844.28125	145.68469	1198.196	860.9209	292.64999	1168.5222	1115.6956	209.55263	-1401.5978	1056.1753	194.04979	-1460.3096	1095.1161	162.40924	-1423.9728	1069.8093	238.67445	-1425.7765	-1204.516	1685.9478	-1563.2144	-1129.1633	1688.2771	-1606.0444	-1173.1978	1724.4291	-1581.9534	-1134.0817	1580.9604	-1603.8866	-1239.5806	1699.0818	1119.4585	-1308.3623	1699.0702	1068.6499	-1270.3969	1736.2675	1096.8695	-1244.6525	1593.5825	1106.3893	988.93311	1664.3005	1162.2448	957.49536	1700.2842	1183.8387	922.62347	1662.1349	1215.0933	939.72791	1659.3967	1159.942	998.97809	1668.4204	-1579.4198	1058.8037	1670.1324	-1518.6372	1024.9229	1708.0081	-1551.1202	1059.2008	1672.121	-1585.4648	-261.37845	164.35092	-221.56	-346.11911	172.08275	-224.24538	-303.27615	129.21344	-221.88658	-299.66547	169.58084	-191.66747	-297.82263	166.35063	-270.13031																																														-1068.6542	210.10367	-1625.0562	-1073.8243	248.75319	-1624.3602	-1321.5938	231.44946	1025.1887	-1320.2731	270.19781	1029.4103	848.02051	183.64909	1196.3102	851.83862	222.41394	1194.3844	1088.7806	202.54228	-1428.1471	1082.7311	240.86349	-1432.1329	-1171.9191	1686.9554	-1581.7421	-1170.5894	1647.9786	-1581.5223	-1270.3092	1699.0765	1096.7593	-1270.2174	1660.0769	1096.6438	952.93933	1705.4988	1186.9681	972.67072	1733.7227	1168.6627	1026.439	1669.2063	-1551.5197	1027.9615	1630.238	-1551.9207	-299.72275	167.8495	-222.7751	-296.15198	206.67543	-223.668
895	7.45	-1038.2561	214.52544	-1644.2286	-1109.4174	204.067	-1599.2987	-1063.7616	173.14786	-1625.6702	-1054.2275	262.21429	-1634.9818	-1352.9503	234.87529	1003.7944	-1281.3805	227.1631	1052.4672	-1322.7997	193.81888	1021.0242	-1284.766	287.82761	1052.8969	813.92224	187.76865	1209.5121	892.21814	178.33212	1179.4069	844.35107	145.65701	1198.2104	860.9082	292.64603	1168.4757	1115.681	209.56198	-1401.6135	1056.1898	194.01511	-1460.2661	1095.1219	162.42351	-1423.9678	1069.7822	238.68202	-1425.8186	-1204.5038	1685.9541	-1563.2273	-1129.1659	1688.2778	-1606.027	-1173.1969	1724.4327	-1581.9464	-1134.0935	1580.9537	-1603.8568	-1239.6263	1699.1603	1119.4974	-1309.0537	1698.2999	1071.7433	-1270.4408	1736.3334	1096.8949	-1244.7463	1593.5529	1106.7039	988.91785	1664.2894	1162.2412	957.5705	1700.33	1183.8379	922.75555	1662.0056	1215.0875	939.7605	1659.4458	1159.9086	998.98145	1668.433	-1579.4434	1058.6818	1669.9614	-1518.663	1024.9241	1708.0183	-1551.1287	1059.21	1672.132	-1585.4696	-261.37842	164.35197	-221.54199	-346.15649	171.93932	-224.31438	-303.25903	129.17609	-221.82848	-299.64877	169.59326	-191.67363	-297.89508	166.3562	-270.22028																																														-1068.7467	210.04427	-1624.9772	-1073.9677	248.6864	-1624.2516	-1321.5466	231.49132	1025.1511	-1320.2582	270.23822	1029.3959	848.20544	183.63669	1196.33	852.13843	222.3904	1194.4111	1088.7649	202.52797	-1428.15	1082.6913	240.84435	-1432.146	-1171.9221	1686.9589	-1581.7369	-1170.5962	1647.9822	-1581.5192	-1270.782	1698.774	1098.0675	-1271.136	1659.7947	1099.2845	953.17828	1705.3795	1186.8638	972.94379	1733.5591	1168.5271	1026.3641	1669.134	-1551.5652	1027.8074	1630.1632	-1552.0028	-299.7717	167.78802	-222.7975	-296.26471	206.6178	-223.772
896	7.4583333	-1038.2463	214.51599	-1644.2307	-1109.4082	204.05115	-1599.3068	-1063.806	173.16676	-1625.6658	-1054.2233	262.19348	-1634.9471	-1352.9418	234.88397	1003.723	-1281.3911	227.10028	1052.4963	-1322.9088	193.8101	1020.9847	-1284.7336	287.86829	1052.8208	813.79486	187.74907	1209.4927	892.62463	179.08304	1178.7935	844.32697	145.60875	1198.2134	860.88855	292.61829	1168.2062	1115.6699	209.54074	-1401.6245	1056.1345	194.0262	-1460.349	1095.0547	162.28351	-1423.9044	1069.7936	238.66969	-1425.7942	-1204.5176	1685.9496	-1563.2277	-1129.1696	1688.2906	-1606.0526	-1173.188	1724.4362	-1581.9573	-1134.0879	1580.9586	-1603.8683	-1239.6294	1699.1531	1119.484	-1309.0507	1698.2828	1071.7336	-1270.3994	1736.2823	1096.8744	-1244.6938	1593.6249	1106.6595	988.88477	1664.2589	1162.2781	957.49445	1700.3625	1183.8561	922.76868	1662.0353	1215.1201	939.75995	1659.4198	1159.9208	998.99139	1668.4264	-1579.4229	1058.688	1669.9689	-1518.6628	1024.9226	1708.0176	-1551.1208	1059.2086	1672.1282	-1585.4625	-261.33862	164.30901	-221.53127	-346.1459	171.90904	-224.29097	-303.30618	129.10999	-221.78091	-299.64288	169.56879	-191.67917	-297.89249	166.35173	-270.2132																																														-1068.7784	210.02603	-1624.9561	-1073.9915	248.6689	-1624.2119	-1321.6053	231.47502	1025.0836	-1320.2645	270.22321	1029.3005	847.78619	184.01228	1196.2551	851.28052	222.80502	1194.2772	1088.7662	202.5298	-1428.1617	1082.7781	240.85353	-1432.2157	-1171.9114	1686.9625	-1581.7596	-1170.5836	1647.9857	-1581.5544	-1270.7548	1698.7628	1098.0748	-1271.124	1659.7844	1099.322	953.15332	1705.3553	1186.8402	972.90436	1733.5149	1168.4574	1026.3702	1669.1337	-1551.5562	1027.8212	1630.1632	-1551.9923	-299.81024	167.75667	-222.78316	-296.29785	206.58511	-223.79015
